<svg xmlns="http://www.w3.org/2000/svg" xmlns:xlink="http://www.w3.org/1999/xlink" width="500" zoomAndPan="magnify" viewBox="0 0 375 225" height="300" preserveAspectRatio="xMidYMid meet" version="1.0"><defs><clipPath id="4b858990ca"><path d="M 80 5.390625 L 295 5.390625 L 295 219.890625 L 80 219.890625 Z M 80 5.390625 " clip-rule="nonzero"/></clipPath></defs><rect x="-37.5" width="450" fill="#ffffff" y="-22.5" height="270" fill-opacity="1"/><rect x="-37.5" width="450" fill="#ffffff" y="-22.5" height="270" fill-opacity="1"/><g clip-path="url(#4b858990ca)"><path fill="#1b3364" d="M 187.527344 5.367188 C 128.375 5.367188 80.421875 53.382812 80.421875 112.613281 C 80.421875 112.820312 80.429688 113.027344 80.433594 113.234375 L 89.347656 112.921875 C 89.347656 112.816406 89.34375 112.714844 89.34375 112.613281 C 89.34375 58.3125 133.300781 14.296875 187.527344 14.296875 C 241.753906 14.296875 285.714844 58.3125 285.714844 112.613281 C 285.714844 112.714844 285.710938 112.816406 285.710938 112.921875 L 294.625 113.234375 C 294.628906 113.027344 294.632812 112.820312 294.632812 112.613281 C 294.632812 53.382812 246.683594 5.367188 187.527344 5.367188 Z M 187.527344 210.925781 C 140.839844 210.925781 101.765625 178.296875 91.804688 134.570312 L 82.605469 134.242188 C 92.597656 183.101562 135.777344 219.855469 187.527344 219.855469 C 239.28125 219.855469 282.460938 183.101562 292.453125 134.242188 L 283.253906 134.570312 C 273.289062 178.296875 234.21875 210.925781 187.527344 210.925781 " fill-opacity="1" fill-rule="nonzero"/></g><path fill="#1b3364" d="M 315.25 133.207031 L 312.492188 130.445312 C 312.910156 129.902344 313.226562 129.28125 313.421875 128.605469 L 317.425781 128.460938 C 317.152344 130.257812 316.378906 131.890625 315.25 133.207031 Z M 308.816406 136.453125 L 308.816406 132.550781 C 309.820312 132.421875 310.742188 132.027344 311.503906 131.433594 L 314.261719 134.191406 C 312.78125 135.476562 310.894531 136.300781 308.816406 136.453125 Z M 307.421875 136.453125 C 305.347656 136.300781 303.460938 135.476562 301.976562 134.191406 L 304.734375 131.433594 C 305.5 132.027344 306.417969 132.421875 307.421875 132.550781 Z M 298.941406 129.121094 L 302.945312 128.976562 C 303.140625 129.507812 303.410156 130.007812 303.746094 130.445312 L 300.992188 133.207031 C 300 132.054688 299.285156 130.65625 298.941406 129.121094 Z M 267.816406 136.957031 L 264.101562 133.242188 C 264.761719 132.394531 265.226562 131.398438 265.46875 130.316406 L 270.792969 130.125 C 270.5 132.722656 269.433594 135.082031 267.816406 136.957031 Z M 259.15625 141.328125 L 259.15625 136.074219 C 260.511719 135.902344 261.75 135.371094 262.777344 134.570312 L 266.488281 138.289062 C 264.492188 140.011719 261.953125 141.125 259.15625 141.328125 Z M 257.28125 141.328125 C 254.484375 141.125 251.945312 140.011719 249.949219 138.289062 L 253.660156 134.570312 C 254.6875 135.371094 255.925781 135.902344 257.28125 136.074219 Z M 245.773438 131.015625 L 251.101562 130.828125 C 251.367188 131.710938 251.78125 132.53125 252.332031 133.242188 L 248.621094 136.957031 C 247.191406 135.300781 246.191406 133.261719 245.773438 131.015625 Z M 205.511719 123.535156 C 203.058594 128.425781 194.851562 132.460938 190.371094 134.363281 C 190.0625 134.492188 189.746094 134.59375 189.425781 134.683594 L 189.425781 123.207031 C 189.425781 121.84375 190.53125 120.738281 191.890625 120.738281 L 203.71875 120.738281 C 205.152344 120.738281 206.160156 122.25 205.511719 123.535156 Z M 185.597656 134.738281 C 185.207031 134.644531 184.816406 134.523438 184.433594 134.359375 C 180.003906 132.480469 171.90625 128.5 169.371094 123.667969 C 168.675781 122.339844 169.605469 120.738281 171.105469 120.738281 L 183.136719 120.738281 C 184.496094 120.738281 185.597656 121.84375 185.597656 123.207031 Z M 126.4375 136.957031 L 122.726562 133.242188 C 123.273438 132.53125 123.6875 131.710938 123.953125 130.828125 L 129.28125 131.015625 C 128.863281 133.261719 127.867188 135.300781 126.4375 136.957031 Z M 117.777344 141.328125 L 117.777344 136.074219 C 119.128906 135.902344 120.371094 135.371094 121.394531 134.570312 L 125.105469 138.289062 C 123.113281 140.011719 120.570312 141.125 117.777344 141.328125 Z M 115.902344 141.328125 C 113.105469 141.125 110.566406 140.011719 108.570312 138.289062 L 112.28125 134.570312 C 113.308594 135.371094 114.546875 135.902344 115.902344 136.074219 Z M 104.261719 130.125 L 109.59375 130.316406 C 109.832031 131.398438 110.296875 132.394531 110.957031 133.242188 L 107.242188 136.957031 C 105.625 135.082031 104.558594 132.722656 104.261719 130.125 Z M 74.066406 133.207031 L 71.308594 130.445312 C 71.648438 130.003906 71.917969 129.507812 72.113281 128.976562 L 76.117188 129.121094 C 75.773438 130.65625 75.058594 132.054688 74.066406 133.207031 Z M 67.632812 136.453125 L 67.632812 132.550781 C 68.640625 132.421875 69.558594 132.027344 70.324219 131.433594 L 73.082031 134.191406 C 71.597656 135.476562 69.710938 136.300781 67.632812 136.453125 Z M 66.242188 136.453125 C 64.164062 136.300781 62.277344 135.476562 60.792969 134.191406 L 63.554688 131.433594 C 64.316406 132.027344 65.234375 132.421875 66.242188 132.550781 Z M 57.632812 128.460938 L 61.636719 128.605469 C 61.832031 129.28125 62.148438 129.902344 62.566406 130.445312 L 59.808594 133.207031 C 58.675781 131.890625 57.90625 130.257812 57.632812 128.460938 Z M 371.257812 120.800781 L 221.164062 115.550781 C 217.722656 115.433594 214.683594 113.28125 213.40625 110.082031 C 211.011719 104.09375 207.25 99.058594 202.609375 95.574219 C 196.261719 90.808594 191.953125 90.792969 191.085938 82.894531 L 190.933594 81.484375 C 190.648438 78.914062 192.515625 76.609375 195.085938 76.351562 L 240.097656 74.480469 C 240.792969 74.453125 240.792969 73.421875 240.097656 73.390625 L 193.394531 71.414062 C 191.292969 71.207031 189.621094 69.554688 189.394531 67.453125 L 187.953125 59.945312 C 187.871094 59.199219 186.789062 59.203125 186.707031 59.945312 L 185.292969 67.457031 C 185.066406 69.5625 183.394531 71.21875 181.285156 71.425781 L 134.75 73.390625 C 134.050781 73.421875 134.050781 74.453125 134.75 74.480469 L 179.628906 76.339844 C 182.195312 76.597656 184.0625 78.898438 183.785156 81.464844 L 183.628906 82.941406 C 182.78125 90.824219 178.496094 90.835938 172.167969 95.601562 C 167.539062 99.085938 163.792969 104.109375 161.40625 110.085938 C 160.128906 113.289062 157.085938 115.441406 153.644531 115.5625 L 3.796875 120.800781 C 0.113281 120.929688 0.109375 126.410156 3.796875 126.539062 L 55.730469 128.394531 C 56.390625 134.007812 61.152344 138.363281 66.9375 138.363281 C 72.445312 138.363281 77.011719 134.410156 78.007812 129.191406 L 101.695312 130.035156 C 102.382812 137.808594 108.898438 143.90625 116.839844 143.90625 C 124.410156 143.90625 130.6875 138.363281 131.851562 131.109375 L 153.683594 131.890625 C 157.039062 132.007812 160.046875 134.042969 161.347656 137.144531 C 163.722656 142.792969 175.5625 165.835938 187.402344 165.835938 C 199.246094 165.835938 211.085938 142.800781 213.460938 137.148438 C 214.761719 134.050781 217.769531 132.015625 221.125 131.898438 L 243.207031 131.109375 C 244.371094 138.363281 250.648438 143.90625 258.21875 143.90625 C 266.160156 143.90625 272.675781 137.808594 273.359375 130.035156 L 297.050781 129.191406 C 298.046875 134.410156 302.613281 138.363281 308.121094 138.363281 C 313.90625 138.363281 318.667969 134.007812 319.328125 128.394531 L 371.257812 126.539062 C 374.949219 126.410156 374.945312 120.929688 371.257812 120.800781 " fill-opacity="1" fill-rule="nonzero"/></svg>